<?xml version="1.0" encoding="utf-8"?>
<!-- Generator: Adobe Illustrator 23.0.2, SVG Export Plug-In . SVG Version: 6.00 Build 0)  -->
<svg version="1.1" id="Calque_1" xmlns="http://www.w3.org/2000/svg" xmlns:xlink="http://www.w3.org/1999/xlink" x="0px" y="0px"
	 viewBox="0 0 152 51" style="enable-background:new 0 0 152 51;" xml:space="preserve">
<style type="text/css">
	.st0{fill:#5F2C59;}
	.st1{fill:#7894A0;}
	.st2{fill:#00B0B4;}
</style>
<path class="st0" d="M145.64,45.86c0.4,0.69,1.13,1.03,2.18,1.03c0.59,0,1.08-0.12,1.47-0.36c0.59-0.37,0.89-0.93,0.89-1.68
	c0-0.36-0.09-0.68-0.26-0.95c-0.23-0.38-0.69-0.67-1.35-0.87l-0.93-0.27c-0.59-0.18-0.88-0.52-0.88-1.05c0-0.26,0.07-0.48,0.21-0.66
	c0.19-0.24,0.46-0.36,0.81-0.36c0.22,0,0.41,0.05,0.58,0.16c0.14,0.09,0.23,0.2,0.29,0.33c0.09,0.22,0.14,0.55,0.15,0.97h1.22
	c-0.03-0.42-0.14-0.77-0.31-1.05c-0.36-0.58-1-0.87-1.91-0.87c-0.54,0-1.01,0.12-1.39,0.37c-0.59,0.37-0.88,0.9-0.88,1.6
	c0,0.52,0.18,0.93,0.53,1.25c0.25,0.23,0.67,0.44,1.24,0.61l0.72,0.21c0.63,0.19,0.95,0.54,0.95,1.07c0,0.25-0.08,0.48-0.23,0.7
	c-0.2,0.26-0.5,0.39-0.9,0.39c-0.27,0-0.5-0.07-0.71-0.2c-0.16-0.1-0.27-0.22-0.34-0.37c-0.12-0.26-0.18-0.61-0.18-1.04h-1.26
	C145.37,45.21,145.46,45.56,145.64,45.86 M141.06,46.73h1.52v-3.41c0-0.57,0.11-1,0.32-1.29c0.2-0.27,0.46-0.4,0.78-0.4
	c0.25,0,0.55,0.07,0.9,0.22v-1.58c-0.57,0.06-1,0.22-1.28,0.47c-0.35,0.3-0.62,0.81-0.81,1.52V40.4h-1.43V46.73z M135.29,43.17
	c0-0.45,0.07-0.88,0.18-1.28c0.22-0.8,0.65-1.2,1.27-1.2c0.47,0,0.8,0.2,1.01,0.6c0.25,0.5,0.38,1.12,0.38,1.88H135.29z
	 M138.69,40.95c-0.5-0.47-1.14-0.71-1.92-0.71c-0.61,0-1.15,0.15-1.63,0.45c-0.38,0.25-0.67,0.56-0.86,0.95
	c-0.28,0.56-0.42,1.19-0.42,1.88c0,0.41,0.05,0.81,0.15,1.19c0.13,0.5,0.32,0.91,0.58,1.21c0.54,0.64,1.29,0.97,2.27,0.97
	c1.41,0,2.27-0.67,2.6-2.02h-0.63c-0.09,0.37-0.24,0.67-0.44,0.9c-0.36,0.42-0.8,0.64-1.34,0.64c-1.16,0-1.75-0.93-1.76-2.79h4.3
	C139.55,42.36,139.25,41.47,138.69,40.95 M129.37,40.91h0.91v3.93c0,0.55,0.08,0.98,0.23,1.27c0.28,0.52,0.74,0.77,1.37,0.77
	c0.41,0,0.92-0.08,1.53-0.25v-0.52c-0.43,0.12-0.73,0.18-0.91,0.18c-0.26,0-0.45-0.11-0.56-0.32c-0.1-0.21-0.15-0.55-0.15-1.03
	v-4.02h1.64V40.4h-1.64v-2.13l-1.51,0.35v1.78h-0.91V40.91z M125.14,40.91h0.91v3.93c0,0.55,0.08,0.98,0.23,1.27
	c0.28,0.52,0.73,0.77,1.37,0.77c0.41,0,0.92-0.08,1.53-0.25v-0.52c-0.43,0.12-0.73,0.18-0.91,0.18c-0.26,0-0.45-0.11-0.56-0.32
	c-0.1-0.21-0.15-0.55-0.15-1.03v-4.02h1.64V40.4h-1.64v-2.13l-1.51,0.35v1.78h-0.91V40.91z M122.67,45.2
	c-0.24,0.73-0.65,1.1-1.22,1.1c-0.62,0-0.93-0.45-0.93-1.34c0-0.66,0.23-1.12,0.7-1.35c0.33-0.17,0.87-0.26,1.63-0.26
	C122.84,44.23,122.79,44.85,122.67,45.2 M122.81,46.73h1.46v-4.05c0-0.43-0.03-0.77-0.09-1.02c-0.06-0.26-0.18-0.5-0.36-0.7
	c-0.41-0.48-1.07-0.72-1.98-0.72c-0.71,0-1.29,0.13-1.74,0.38c-0.22,0.13-0.42,0.33-0.59,0.61c-0.16,0.27-0.24,0.58-0.24,0.92h1.35
	v-0.12c0.01-0.9,0.38-1.35,1.11-1.35c0.45,0,0.76,0.16,0.92,0.48c0.12,0.24,0.18,0.62,0.18,1.13v0.64
	c-1.43,0.04-2.39,0.19-2.88,0.45c-0.66,0.35-0.99,0.9-0.99,1.65c0,0.48,0.13,0.89,0.39,1.22c0.32,0.42,0.83,0.62,1.54,0.62
	c0.6,0,1.08-0.19,1.44-0.58c0.19-0.22,0.35-0.53,0.49-0.94V46.73z M108.43,46.73h1.51v-2.89c0-0.61,0.03-1.08,0.09-1.42
	c0.09-0.52,0.27-0.92,0.52-1.2c0.24-0.27,0.52-0.4,0.82-0.4c0.36,0,0.6,0.16,0.73,0.47c0.12,0.3,0.18,0.8,0.18,1.49v3.95h1.51v-2.77
	c0-1.38,0.21-2.29,0.63-2.75c0.24-0.26,0.51-0.39,0.81-0.39c0.35,0,0.6,0.16,0.75,0.49c0.11,0.24,0.17,0.68,0.17,1.31v4.1h1.51
	v-4.28c0-0.53-0.08-0.96-0.24-1.28c-0.32-0.62-0.86-0.92-1.64-0.92c-0.63,0-1.14,0.21-1.52,0.64c-0.2,0.22-0.37,0.54-0.51,0.97
	c-0.08-0.42-0.21-0.74-0.37-0.97c-0.32-0.43-0.8-0.65-1.44-0.65c-0.66,0-1.2,0.23-1.6,0.68c-0.22,0.24-0.39,0.6-0.53,1.07V40.4
	h-1.38V46.73z M98.65,45.86c0.4,0.69,1.13,1.03,2.18,1.03c0.6,0,1.09-0.12,1.47-0.36c0.6-0.37,0.89-0.93,0.89-1.68
	c0-0.36-0.09-0.68-0.26-0.95c-0.23-0.38-0.69-0.67-1.35-0.87l-0.93-0.27c-0.59-0.18-0.88-0.52-0.88-1.05c0-0.26,0.07-0.48,0.21-0.66
	c0.19-0.24,0.46-0.36,0.81-0.36c0.22,0,0.41,0.05,0.58,0.16c0.14,0.09,0.23,0.2,0.29,0.33c0.09,0.22,0.14,0.55,0.15,0.97h1.22
	c-0.03-0.42-0.14-0.77-0.32-1.05c-0.36-0.58-1-0.87-1.91-0.87c-0.54,0-1.01,0.12-1.39,0.37c-0.59,0.37-0.88,0.9-0.88,1.6
	c0,0.52,0.18,0.93,0.53,1.25c0.25,0.23,0.67,0.44,1.24,0.61l0.72,0.21c0.63,0.19,0.95,0.54,0.95,1.07c0,0.25-0.08,0.48-0.23,0.7
	c-0.2,0.26-0.5,0.39-0.9,0.39c-0.27,0-0.5-0.07-0.71-0.2c-0.16-0.1-0.27-0.22-0.34-0.37c-0.12-0.26-0.18-0.61-0.18-1.04h-1.26
	C98.38,45.21,98.47,45.56,98.65,45.86 M95.47,36.87c-0.19,0.17-0.28,0.38-0.28,0.64c0,0.22,0.07,0.42,0.21,0.58
	c0.18,0.19,0.43,0.29,0.78,0.29c0.32,0,0.56-0.07,0.72-0.22c0.18-0.16,0.27-0.37,0.27-0.63c0-0.25-0.07-0.45-0.23-0.61
	c-0.18-0.18-0.43-0.27-0.76-0.27C95.88,36.65,95.64,36.72,95.47,36.87 M95.43,46.73h1.52V40.4h-1.52V46.73z M89.37,45.86
	c0.4,0.69,1.13,1.03,2.18,1.03c0.6,0,1.09-0.12,1.47-0.36c0.6-0.37,0.89-0.93,0.89-1.68c0-0.36-0.09-0.68-0.26-0.95
	c-0.23-0.38-0.68-0.67-1.35-0.87l-0.93-0.27c-0.59-0.18-0.88-0.52-0.88-1.05c0-0.26,0.07-0.48,0.21-0.66
	c0.19-0.24,0.46-0.36,0.81-0.36c0.21,0,0.41,0.05,0.58,0.16c0.14,0.09,0.23,0.2,0.28,0.33c0.09,0.22,0.14,0.55,0.15,0.97h1.21
	c-0.03-0.42-0.14-0.77-0.31-1.05c-0.36-0.58-1-0.87-1.91-0.87c-0.54,0-1,0.12-1.39,0.37c-0.59,0.37-0.88,0.9-0.88,1.6
	c0,0.52,0.18,0.93,0.53,1.25c0.25,0.23,0.67,0.44,1.25,0.61l0.72,0.21c0.63,0.19,0.95,0.54,0.95,1.07c0,0.25-0.08,0.48-0.23,0.7
	c-0.2,0.26-0.5,0.39-0.9,0.39c-0.27,0-0.5-0.07-0.71-0.2c-0.16-0.1-0.27-0.22-0.34-0.37c-0.12-0.26-0.18-0.61-0.18-1.04h-1.26
	C89.1,45.21,89.19,45.56,89.37,45.86 M86.14,41.37c0.23,0.5,0.35,1.25,0.35,2.26c0,1.36-0.25,2.23-0.74,2.61
	c-0.19,0.15-0.43,0.22-0.71,0.22c-0.24,0-0.46-0.06-0.64-0.19c-0.19-0.13-0.33-0.3-0.41-0.5c-0.24-0.58-0.36-1.28-0.36-2.1
	c0-1,0.12-1.77,0.36-2.29c0.21-0.47,0.58-0.7,1.08-0.7C85.57,40.67,85.93,40.9,86.14,41.37 M82.93,41
	c-0.61,0.58-0.91,1.43-0.91,2.55c0,0.71,0.14,1.36,0.43,1.96c0.2,0.4,0.5,0.72,0.91,0.97c0.5,0.3,1.08,0.46,1.72,0.46
	c0.63,0,1.2-0.16,1.7-0.47c0.41-0.25,0.71-0.57,0.91-0.97c0.28-0.57,0.42-1.19,0.42-1.86c0-1.16-0.3-2.03-0.89-2.61
	c-0.56-0.54-1.27-0.82-2.15-0.82C84.2,40.2,83.48,40.46,82.93,41 M75.25,40.4v6.33h1.52v-2.68c0-1.4,0.21-2.33,0.61-2.79
	c0.25-0.27,0.52-0.4,0.83-0.4c0.34,0,0.59,0.17,0.74,0.51c0.11,0.25,0.17,0.69,0.17,1.33v4.03h1.52v-4.08
	c0-0.64-0.09-1.13-0.26-1.48c-0.31-0.62-0.87-0.92-1.66-0.92c-1.07,0-1.76,0.64-2.06,1.91V40.4H75.25z M70.39,47.73l1.79,0.14
	c0.54,0.04,0.9,0.15,1.09,0.34c0.16,0.17,0.24,0.38,0.24,0.64c0,0.23-0.06,0.45-0.18,0.65c-0.17,0.28-0.38,0.48-0.63,0.61
	c-0.49,0.25-1.06,0.38-1.69,0.38c-0.34,0-0.66-0.04-0.96-0.11c-0.4-0.1-0.7-0.24-0.92-0.42c-0.37-0.33-0.56-0.74-0.56-1.2
	c0-0.46,0.2-0.87,0.59-1.25C69.47,47.62,69.87,47.69,70.39,47.73 M72.08,42.65c0,1.33-0.37,1.99-1.11,1.99
	c-0.39,0-0.67-0.16-0.84-0.49c-0.18-0.34-0.27-0.86-0.27-1.55c0-0.69,0.11-1.19,0.34-1.51c0.19-0.27,0.45-0.4,0.77-0.4
	C71.71,40.69,72.08,41.34,72.08,42.65 M72.12,40.45c-0.41-0.14-0.81-0.21-1.19-0.21c-0.86,0-1.52,0.28-1.98,0.83
	c-0.37,0.45-0.56,0.98-0.56,1.6c0,0.6,0.18,1.12,0.53,1.57c0.18,0.23,0.44,0.43,0.78,0.61c-0.34,0.16-0.58,0.33-0.73,0.49
	c-0.24,0.26-0.36,0.58-0.36,0.95c0,0.4,0.16,0.75,0.48,1.05c-0.73,0.43-1.09,0.97-1.09,1.64c0,0.31,0.07,0.6,0.22,0.87
	c0.16,0.29,0.37,0.52,0.64,0.7c0.49,0.3,1.15,0.46,1.96,0.46c1.26,0,2.17-0.33,2.72-1c0.37-0.44,0.56-0.97,0.56-1.59
	c0-0.68-0.22-1.16-0.64-1.45c-0.33-0.22-0.84-0.36-1.53-0.41l-1.21-0.1c-0.44-0.03-0.74-0.1-0.87-0.2c-0.16-0.11-0.23-0.3-0.23-0.54
	c0-0.32,0.16-0.57,0.48-0.75c0.3,0.07,0.58,0.11,0.83,0.11c0.81,0,1.47-0.23,1.97-0.7c0.44-0.42,0.67-0.98,0.67-1.7
	c0-0.66-0.21-1.21-0.64-1.66h1.32v-0.55H72.12z M65.28,45.2c-0.24,0.73-0.65,1.1-1.22,1.1c-0.62,0-0.93-0.45-0.93-1.34
	c0-0.66,0.23-1.12,0.69-1.35c0.33-0.17,0.87-0.26,1.63-0.26C65.46,44.23,65.4,44.85,65.28,45.2 M65.43,46.73h1.46v-4.05
	c0-0.43-0.03-0.77-0.09-1.02c-0.06-0.26-0.18-0.5-0.36-0.7c-0.41-0.48-1.07-0.72-1.98-0.72c-0.71,0-1.29,0.13-1.74,0.38
	c-0.22,0.13-0.42,0.33-0.59,0.61c-0.16,0.27-0.24,0.58-0.24,0.92h1.35v-0.12c0.01-0.9,0.38-1.35,1.11-1.35
	c0.45,0,0.76,0.16,0.92,0.48c0.12,0.24,0.18,0.62,0.18,1.13v0.64c-1.43,0.04-2.4,0.19-2.88,0.45c-0.66,0.35-1,0.9-1,1.65
	c0,0.48,0.13,0.89,0.39,1.22c0.32,0.42,0.83,0.62,1.54,0.62c0.6,0,1.08-0.19,1.43-0.58c0.19-0.22,0.35-0.53,0.49-0.94V46.73z
	 M58.65,36.87c-0.19,0.17-0.28,0.38-0.28,0.64c0,0.22,0.07,0.42,0.21,0.58c0.18,0.19,0.43,0.29,0.78,0.29
	c0.32,0,0.56-0.07,0.72-0.22c0.18-0.16,0.27-0.37,0.27-0.63c0-0.25-0.08-0.45-0.23-0.61c-0.18-0.18-0.43-0.27-0.76-0.27
	C59.06,36.65,58.82,36.72,58.65,36.87 M58.61,46.73h1.52V40.4h-1.52V46.73z M54.24,40.99c0.24,0.18,0.42,0.4,0.56,0.68
	c0.23,0.48,0.34,1.11,0.34,1.88c0,0.41-0.04,0.8-0.12,1.16c-0.1,0.46-0.23,0.8-0.41,1.04c-0.28,0.39-0.62,0.58-1.01,0.58
	c-0.16,0-0.31-0.05-0.45-0.14c-0.18-0.11-0.31-0.25-0.4-0.42c-0.25-0.47-0.38-1.27-0.38-2.41c0-0.39,0.03-0.79,0.1-1.18
	c0.08-0.46,0.2-0.79,0.35-0.99c0.22-0.29,0.49-0.43,0.8-0.43C53.85,40.78,54.05,40.85,54.24,40.99 M56.67,36.36h-1.52v5.38
	c-0.37-1-1.01-1.5-1.93-1.5c-0.45,0-0.86,0.12-1.23,0.36c-0.38,0.25-0.65,0.55-0.82,0.92c-0.27,0.6-0.41,1.27-0.41,2.03
	c0,0.44,0.05,0.86,0.14,1.26c0.13,0.53,0.31,0.94,0.54,1.23c0.46,0.57,1.06,0.85,1.79,0.85c0.57,0,1.04-0.2,1.43-0.59
	c0.23-0.24,0.42-0.58,0.56-1.04v1.48h1.46V36.36z M41.67,43.17c0-0.45,0.07-0.88,0.18-1.28c0.22-0.8,0.65-1.2,1.27-1.2
	c0.47,0,0.8,0.2,1.01,0.6c0.25,0.5,0.38,1.12,0.38,1.88H41.67z M45.08,40.95c-0.5-0.47-1.14-0.71-1.92-0.71
	c-0.61,0-1.15,0.15-1.62,0.45c-0.39,0.25-0.67,0.56-0.86,0.95c-0.28,0.56-0.42,1.19-0.42,1.88c0,0.41,0.05,0.81,0.15,1.19
	c0.13,0.5,0.32,0.91,0.58,1.21c0.54,0.64,1.29,0.97,2.27,0.97c1.41,0,2.27-0.67,2.6-2.02h-0.63c-0.09,0.37-0.24,0.67-0.44,0.9
	c-0.36,0.42-0.8,0.64-1.34,0.64c-1.16,0-1.75-0.93-1.76-2.79h4.3C45.94,42.36,45.64,41.47,45.08,40.95 M34.62,45.86
	c0.4,0.69,1.13,1.03,2.18,1.03c0.6,0,1.09-0.12,1.47-0.36c0.59-0.37,0.89-0.93,0.89-1.68c0-0.36-0.09-0.68-0.26-0.95
	c-0.23-0.38-0.69-0.67-1.35-0.87l-0.93-0.27c-0.59-0.18-0.88-0.52-0.88-1.05c0-0.26,0.07-0.48,0.21-0.66
	c0.19-0.24,0.46-0.36,0.81-0.36c0.21,0,0.41,0.05,0.58,0.16c0.14,0.09,0.23,0.2,0.28,0.33c0.09,0.22,0.14,0.55,0.15,0.97h1.21
	c-0.03-0.42-0.14-0.77-0.31-1.05c-0.36-0.58-1-0.87-1.91-0.87c-0.54,0-1,0.12-1.39,0.37c-0.59,0.37-0.88,0.9-0.88,1.6
	c0,0.52,0.18,0.93,0.53,1.25c0.25,0.23,0.67,0.44,1.24,0.61l0.72,0.21c0.63,0.19,0.95,0.54,0.95,1.07c0,0.25-0.08,0.48-0.23,0.7
	c-0.2,0.26-0.5,0.39-0.9,0.39c-0.27,0-0.51-0.07-0.71-0.2c-0.16-0.1-0.27-0.22-0.34-0.37c-0.12-0.26-0.18-0.61-0.18-1.04h-1.26
	C34.36,45.21,34.45,45.56,34.62,45.86 M31.43,40.4v2.69c0,1.41-0.21,2.34-0.62,2.79c-0.25,0.27-0.52,0.4-0.83,0.4
	c-0.34,0-0.59-0.17-0.74-0.51c-0.11-0.25-0.17-0.7-0.17-1.33V40.4h-1.52v4.09c0,0.64,0.08,1.13,0.26,1.47
	c0.31,0.62,0.87,0.92,1.66,0.92c1.07,0,1.76-0.63,2.06-1.9v1.75h1.41V40.4H31.43z M24.29,45.2c-0.24,0.73-0.65,1.1-1.22,1.1
	c-0.62,0-0.93-0.45-0.93-1.34c0-0.66,0.23-1.12,0.7-1.35c0.33-0.17,0.87-0.26,1.63-0.26C24.47,44.23,24.41,44.85,24.29,45.2
	 M24.44,46.73h1.46v-4.05c0-0.43-0.03-0.77-0.09-1.02c-0.06-0.26-0.18-0.5-0.36-0.7c-0.41-0.48-1.07-0.72-1.98-0.72
	c-0.71,0-1.29,0.13-1.74,0.38c-0.22,0.13-0.42,0.33-0.59,0.61c-0.16,0.27-0.24,0.58-0.24,0.92h1.35v-0.12c0-0.9,0.38-1.35,1.11-1.35
	c0.45,0,0.76,0.16,0.92,0.48c0.12,0.24,0.18,0.62,0.18,1.13v0.64c-1.43,0.04-2.4,0.19-2.88,0.45c-0.66,0.35-1,0.9-1,1.65
	c0,0.48,0.13,0.89,0.39,1.22c0.32,0.42,0.83,0.62,1.54,0.62c0.6,0,1.08-0.19,1.43-0.58c0.19-0.22,0.35-0.53,0.49-0.94V46.73z
	 M18.77,45.69c-0.3,0.46-0.71,0.69-1.24,0.69c-0.57,0-0.98-0.27-1.25-0.82c-0.22-0.44-0.33-1.09-0.33-1.95
	c0-1.93,0.46-2.89,1.38-2.89c0.71,0,1.07,0.63,1.06,1.88h1.37c0-0.45-0.11-0.86-0.31-1.21c-0.43-0.75-1.15-1.13-2.14-1.13
	c-0.96,0-1.72,0.34-2.28,1.02c-0.47,0.58-0.71,1.34-0.71,2.27c0,1.05,0.26,1.87,0.78,2.45c0.53,0.6,1.25,0.89,2.16,0.89
	c0.5,0,0.96-0.11,1.37-0.32c0.27-0.14,0.49-0.34,0.67-0.6c0.2-0.31,0.33-0.7,0.38-1.18h-0.61C19.02,45.15,18.92,45.45,18.77,45.69
	 M8.98,43.17c0-0.45,0.07-0.88,0.18-1.28c0.22-0.8,0.65-1.2,1.27-1.2c0.47,0,0.81,0.2,1.01,0.6c0.25,0.5,0.38,1.12,0.38,1.88H8.98z
	 M12.38,40.95c-0.5-0.47-1.14-0.71-1.93-0.71c-0.61,0-1.15,0.15-1.62,0.45c-0.39,0.25-0.67,0.56-0.86,0.95
	c-0.28,0.56-0.42,1.19-0.42,1.88c0,0.41,0.05,0.81,0.15,1.19c0.13,0.5,0.32,0.91,0.58,1.21c0.54,0.64,1.29,0.97,2.27,0.97
	c1.41,0,2.27-0.67,2.6-2.02h-0.63c-0.09,0.37-0.24,0.67-0.44,0.9c-0.36,0.42-0.8,0.64-1.34,0.64c-1.16,0-1.75-0.93-1.76-2.79h4.3
	C13.24,42.36,12.95,41.47,12.38,40.95 M1.67,41.95h1.08c0.53,0,0.93,0.1,1.2,0.3c0.47,0.33,0.7,0.95,0.7,1.84
	c0,0.89-0.23,1.5-0.7,1.83c-0.29,0.21-0.72,0.32-1.29,0.32H1.67V41.95z M1.67,37.44h0.76c0.32,0,0.58,0.02,0.79,0.05
	c0.2,0.03,0.39,0.11,0.56,0.24c0.45,0.32,0.68,0.88,0.68,1.68c0,0.59-0.12,1.06-0.37,1.43c-0.28,0.41-0.75,0.62-1.42,0.62h-1V37.44z
	 M0,46.73h2.75c0.69,0,1.2-0.03,1.51-0.09c0.73-0.13,1.27-0.42,1.64-0.88c0.35-0.43,0.53-0.98,0.53-1.63c0-0.86-0.29-1.51-0.87-1.93
	c-0.4-0.29-0.95-0.46-1.65-0.51v-0.04c1.53-0.21,2.3-0.97,2.3-2.27c0-0.52-0.12-0.96-0.37-1.35c-0.29-0.45-0.73-0.77-1.33-0.94
	c-0.34-0.1-0.87-0.14-1.57-0.14H0V46.73z"/>
<g>
	<path class="st0" d="M88.36,19.51c-0.57,1.63-1.37,3.02-2.39,4.15c-1.02,1.13-2.24,2-3.64,2.61c-1.41,0.6-2.93,0.91-4.6,0.91h-0.48
		c-1.02,0-3.27-0.26-3.59-0.32V2.13c0.32-0.03,3.11-0.32,3.59-0.32h0.38c1.72,0,3.3,0.31,4.72,0.93C83.78,3.36,85,4.25,86.02,5.4
		c1.02,1.15,1.81,2.53,2.37,4.15c0.56,1.62,0.84,2.49,0.84,4.48C89.23,16.05,88.94,17.88,88.36,19.51 M95.16,8.59
		c-0.83-1.83-2.07-3.38-3.73-4.65c-1.66-1.27-3.72-2.25-6.17-2.93C82.79,0.34,79.92,0,76.64,0h-9.19v5.9v23.09h10.43
		c3,0,5.66-0.37,7.97-1.11c2.31-0.74,4.25-1.78,5.82-3.11c1.56-1.33,2.75-2.92,3.55-4.78c0.8-1.86,1.2-3.91,1.2-6.14
		C96.41,11.55,95.99,10.42,95.16,8.59"/>
	<path class="st0" d="M58.53,19.92L42.06,2.72c-0.73-0.91-1.67-1.59-2.8-2.04c-0.86-0.35-1.97-0.56-3.23-0.64c0,0.96,0,4.83,0,5.4
		v23.55h2.39V7.48l20.3,21.64h2.2V0h-2.39V19.92z"/>
	<path class="st0" d="M23.28,23.09c0,1.15,0.06,2.1,0.19,2.86c0.13,0.76,0.36,1.36,0.69,1.81c0.34,0.45,0.78,0.77,1.34,0.95
		c0.56,0.18,1.25,0.27,2.08,0.27h1.92c0,0,0-4.53,0-5.89V0h-6.22V23.09z"/>
	<polygon class="st0" points="0,0 0,28.99 6.22,28.99 6.22,14.7 16.76,14.7 16.76,12.67 6.22,12.67 6.22,2.04 18.97,2.04 18.98,0 	
		"/>
</g>
<path class="st1" d="M131.86,28.97c-0.11,0-0.05-0.01,0-0.04c0.92-0.38,2.04-3.46,2.24-4.15c0.11-0.39,1.57-1.38,1.57-1.7
	c0-0.32-0.29-0.87-0.29-0.87s0.46-0.45,0.46-0.9c0-0.45-0.58-1.92-0.58-1.92c1.68-0.83,3.06-0.84,3.06-2.44
	c0-2.77-4.58-5.17-4.74-8.77c0-0.06,0-0.39,0-0.45c0-5.82-2.3-7.49-2.72-7.71C130.82,0.01,130.87,0,130.87,0l12.26,0
	c0,0,4.91,3.31,4.91,9.6c0,2.6,3.96,5.2,3.96,7.17c0,1.23-1.68,1.73-1.9,1.9c-0.21,0.18-0.44,0.9-0.44,1.64
	c0,0.74,0.54,0.67,0.54,1.19c0,0.67-1.27,1.19-1.27,1.19s0.98,0.66,0.98,1c0,0.51-1.28,1.02-1.28,1.82c0,1.83-1.78,3.47-4.73,3.47
	C141.19,28.98,133.08,28.97,131.86,28.97 M145.46,7.07c0.6-0.06,0.44-0.43,0.19-0.63c-1.02-0.83-3.11-0.57-4.53-0.29
	c-0.81,0.16-1.59,0.35-2.38,0.54c-0.17,0.04-0.48,0.07-0.6,0.16c-0.22,0.14-0.04,0.48,0.06,0.63c0.1,0.15,0.27,0.32,0.5,0.42
	c-0.01,0-0.02-0.01-0.02-0.01c-0.01,0,0.03,0.01,0.03,0.02c0,0,0,0,0,0c0.18,0.09,0.37,0.04,0.57,0c0.33-0.07,0.66-0.15,1-0.23
	c0.85-0.2,1.7-0.41,2.61-0.52c0.4-0.05,0.82-0.08,1.23-0.11C144.56,7.02,145.02,7.11,145.46,7.07 M142.56,10.55
	c0,0.98,0.27,1.21,0.27,1.21s-0.74-0.11-0.87-0.11c-0.13,0-0.35,0.01-0.35,0.21c0,0.47,1.42,0.56,2.19,0.56
	c0.77,0,1.21-0.2,1.21-0.42s-0.23-0.23-0.23-0.23s0.4-0.45,0.4-1.08c0-0.64-0.27-1.24-0.27-1.24s0.38-0.08,0.38-0.36
	c0-0.28-0.07-0.6-0.73-0.6c-1.03,0-4,0.57-4,1.66c0,0.09,0,0.39,0.25,0.39c0.35,0,1.97-0.62,1.97-0.62S142.56,10.21,142.56,10.55
	 M144.36,10.5c-0.06-0.39-0.28-0.69-0.49-0.66c-0.21,0.03-0.34,0.37-0.28,0.76c0.06,0.39,0.28,0.69,0.49,0.66
	C144.3,11.23,144.42,10.89,144.36,10.5"/>
<path class="st2" d="M137.11,16.87c0,0.73-0.6,0.9-2.73,1.72c0,0-0.07,0.24-0.07,0.76c0,0.91,0.56,1.59,0.56,2.02
	c0,0.43-0.82,0.78-0.82,0.78s0.42,0.45,0.42,0.76c0,0.31-1.47,1.26-1.47,1.26s-1.23,4.83-3.56,4.83h-12.32c-0.02,0-0.07-0.01,0-0.04
	c0.92-0.34,1.75-2.75,1.75-4.06c0-1.41,1.27-1.47,1.27-2.54c0-0.59-0.29-0.63-0.29-0.63s0.85-0.22,0.85-0.85
	c0-0.3-0.66-1.99-0.66-1.99c0.49-0.14,2.36-0.92,2.36-2.26c0-2.44-5.01-6.49-5.01-8.98c0-0.04,0-0.83,0-0.87
	c0-4.28-4.08-6.4-4.72-6.71c-0.06-0.03-0.05-0.04,0.01-0.04h15.36c1.64,0,4.35,1.09,4.35,8.77
	C132.39,11.08,137.11,14.59,137.11,16.87 M128.08,6.98c1.11,0,2.35,0.44,2.35-0.13c0-0.57-1.72-1.02-2.9-1.02
	c-2.97,0-4.65,1.88-4.65,2.29c0,0.22,0.34,0.23,0.34,0.23C124.3,8.34,125.16,6.98,128.08,6.98 M129.73,10.86
	c0-0.57-0.29-1.24-0.29-1.24s0.34-0.07,0.34-0.47c0-0.22-0.1-0.54-0.59-0.54c-1.38,0-4.43,0.65-4.43,1.75c0,0.08,0.01,0.41,0.3,0.41
	c0.37,0,2.13-0.66,2.13-0.66c-0.28,0.17-0.26,0.61-0.26,0.61c0,0.78,0.34,1.4,0.34,1.4c-0.81,0-1.13-0.05-1.13,0.15
	c0,0.2,0.71,0.43,1.97,0.43c1.27,0,1.29-0.32,1.29-0.42c0-0.11-0.2-0.11-0.2-0.11S129.73,11.63,129.73,10.86 M128.57,9.84
	c-0.21,0.02-0.35,0.36-0.3,0.75c0.05,0.39,0.26,0.69,0.47,0.67c0.21-0.02,0.35-0.36,0.3-0.75C128.99,10.12,128.78,9.82,128.57,9.84"
	/>
<path class="st0" d="M114.66,28.97c-3.04,0-13.93,0.01-13.93,0.01C106.32,14.49,99.1,12.19,99.1,0h10.4c3.04,0,6.69,3.89,6.69,6.55
	c0,0-0.02,1.03,0.16,2.35c0.18,1.32,4.85,5.94,4.85,7.66c0,0.77-2.51,1.59-2.51,1.59s-0.03,0.17-0.03,0.5
	c0,0.62,0.37,1.43,0.37,1.88c0,0-0.05,0.41-0.63,0.55c0,0-0.62,0.11-0.68,0.17c-0.06,0.07,1.18,0.01,1.18,0.8
	c0,0.89-1.14,0.72-1.14,2.55c0,0,0,0.11,0,0.29C117.76,27.31,116,28.97,114.66,28.97 M114.03,7.45c0.52,0,0.85-0.56,0.85-1.03
	c0-0.12-0.1-0.24-0.52-0.24c-0.68,0-1.9-0.18-3.6-0.18c-3.06,0-3.67,1.11-3.67,1.35c0,0.24,0.33,0.24,0.33,0.24
	c0.56,0,1.31-0.32,2.94-0.32C111.98,7.27,114.03,7.45,114.03,7.45 M113.52,12.66c0-0.14-0.22-0.19-0.22-0.19s0.31-0.51,0.31-1.07
	c0-0.55-0.35-1.11-0.35-1.21c0-0.1,0.29-0.14,0.29-0.37c0-0.23-0.32-0.54-0.97-0.54c-2.23,0-4.12,1.42-4.12,1.85
	c0,0.13,0.11,0.28,0.53,0.28c0.96,0,1.98-0.59,2.05-0.59c0.07,0,0.12-0.02,0.12,0.24c0,0.62,0.28,1.37,0.28,1.37
	s-1.07-0.23-1.07,0.12c0,0.35,0.91,0.52,1.91,0.52C113.28,13.08,113.52,12.8,113.52,12.66 M112.43,10.56
	c-0.21,0.04-0.32,0.38-0.25,0.77c0.07,0.39,0.31,0.67,0.52,0.64c0.21-0.04,0.32-0.38,0.25-0.77
	C112.87,10.81,112.64,10.52,112.43,10.56"/>
</svg>
